# xmcd
#
# Track frame offsets:
#	150
#	10768
#	23160
#	38623
#	52233
#	61478
#	73783
#	85498
#	96768
#	108753
#	122698
#	140118
#	156965
#	171903
#	185888
#	204168
#	217888
#
# Disc length: 3052 seconds
#
# Revision: 1
# Processed by: cddbd v1.5.1PL0 Copyright (c) Steve Scherf et al.
# Submitted via: CDex 1.50Beta5
#
DISCID=f20bea11
DTITLE=ヘンリー・マンシーニ・オーケストラ - エレガンス〜リラックス・イン・ザ・ムード
DYEAR=2002
DGENRE=Easy Listening
TTITLE0=ヘンリー・マンシーニ・オーケストラ/ムーン・リヴァー
TTITLE1=パーシー・フェイス・オーケストラ/夏の日の恋
TTITLE2=マントヴァーニ・オーケストラ/シャルメーヌ
TTITLE3=カーメン・キャバレロ/愛情物語
TTITLE4=ビリー・ヴォーン楽団/浪路はるかに
TTITLE5=レイモン・ルフェーヴル・グランド・オーケストラ/ジュ・テーム
TTITLE6=ポール・モーリア/恋はみずいろ
TTITLE7=フランシス・レイ/男と女
TTITLE8=リチャード・クレイダーマン/渚のアデリーヌ
TTITLE9=ビクター・ヤング/アラウンド・ザ・ワールド
TTITLE10=パーシー・フェイス・オーケストラ/ムーラン・ルージュの歌
TTITLE11=グレン・ミラー・オーケストラ/ムーンライト・セレナーデ
TTITLE12=ヘンリー・マンシーニ・オーケストラ/酒とバラの日々
TTITLE13=レイモン・ルフェーヴル・グランド・オーケストラ/シバの女王
TTITLE14=ダニエル・リカーリ/ふたりの天使
TTITLE15=ニニ・ロッソ/夜空のトランペット
TTITLE16=ヘンリー・マンシーニ/ひまわり〜愛のテーマ
EXTD=
EXTT0=
EXTT1=
EXTT2=
EXTT3=
EXTT4=
EXTT5=
EXTT6=
EXTT7=
EXTT8=
EXTT9=
EXTT10=
EXTT11=
EXTT12=
EXTT13=
EXTT14=
EXTT15=
EXTT16=
PLAYORDER=
